<?xml version="1.0" encoding="UTF-8" standalone="no"?>
<svg
   width="118.67487"
   height="61.306664"
   version="1.1"
   viewBox="0 0 118.67487 61.306664"
   id="svg61"
   sodipodi:docname="PAN_logo.svg"
   inkscape:version="1.1.2 (b8e25be833, 2022-02-05)"
   xmlns:inkscape="http://www.inkscape.org/namespaces/inkscape"
   xmlns:sodipodi="http://sodipodi.sourceforge.net/DTD/sodipodi-0.dtd"
   xmlns="http://www.w3.org/2000/svg"
   xmlns:svg="http://www.w3.org/2000/svg">
  <defs
     id="defs65">
    <mask
       id="a"
       fill="#ffffff">
      <path
         d="m 0.875,0.2514 h 110.8 V 6 H 0.875 Z"
         id="path52" />
    </mask>
  </defs>
  <sodipodi:namedview
     id="namedview63"
     pagecolor="#505050"
     bordercolor="#eeeeee"
     borderopacity="1"
     inkscape:pageshadow="0"
     inkscape:pageopacity="0"
     inkscape:pagecheckerboard="0"
     showgrid="false"
     inkscape:zoom="2"
     inkscape:cx="24.5"
     inkscape:cy="21.5"
     inkscape:window-width="1920"
     inkscape:window-height="1017"
     inkscape:window-x="-8"
     inkscape:window-y="-8"
     inkscape:window-maximized="1"
     inkscape:current-layer="g59"
     fit-margin-top="0"
     fit-margin-left="0"
     fit-margin-right="0"
     fit-margin-bottom="0" />
  <g
     fill="none"
     fill-rule="evenodd"
     stroke="none"
     stroke-width="1"
     id="g59"
     transform="translate(-1.2725243e-4,-3.3664964e-4)">
    <path
       fill="#006680"
       d="m 115.1532,23.7253 c -1.815,-1.815 -4.366,-2.81 -7.197,-2.81 -2.81,0 -5.338,0.995 -7.175,2.81 -1.772,1.772 -2.766,4.322 -2.766,7.131 v 18.219 h 5.23 v -18.327 c 0,-2.939 1.772,-4.71 4.711,-4.71 2.961,0 4.755,1.771 4.755,4.71 v 18.327 h 5.229 v -18.219 c -0.021,-2.809 -0.994,-5.338 -2.787,-7.131 z m -27.23,7.002 c 0,-2.939 -1.773,-4.711 -4.754,-4.711 -2.918,0 -4.712,1.772 -4.712,4.711 v 5.619 h 9.466 z m 5.229,18.348 h -5.229 v -7.672 h -9.466 v 7.672 h -5.23 v -18.219 c 0,-2.809 0.994,-5.338 2.766,-7.131 1.815,-1.815 4.366,-2.81 7.176,-2.81 2.852,0 5.38,0.995 7.196,2.81 1.771,1.772 2.766,4.322 2.766,7.131 v 18.219 z m -33.604,-23.21 c -2.724,0 -4.993,2.334 -4.993,5.229 v 5.187 h 4.993 c 2.765,0 5.035,-2.334 5.035,-5.187 -0.022,-2.895 -2.27,-5.229 -5.035,-5.229 z m 0.388,15.214 h -5.381 v 7.996 h -5.23 v -18.089 c 0,-5.532 4.431,-10.049 10.223,-10.049 5.813,0 10.243,4.517 10.243,10.049 0,5.727 -4.711,10.093 -9.855,10.093 z"
       id="path2" />
    <path
       fill="#3f9177"
       d="m 13.7753,23.9196 c -2.334,6.051 -6.916,1.253 -8.256,-0.389 4.172,-3.803 7.759,-3.523 8.256,0.389"
       id="path4" />
    <path
       fill="#3f9177"
       d="m 5.1092,22.2556 c 0.864,-1.988 -3.89,-4.084 -4.711,-1.534 -0.13,0.388 0.432,0.994 0.497,1.058 0.821,0.865 3.501,2.075 4.214,0.476"
       id="path6" />
    <path
       fill="#72be44"
       d="m 4.9359,24.633 c -1.599,-2.593 -6.44,0.065 -4.473,1.707 1.232,1.038 3.976,0.432 4.473,-1.707"
       id="path8" />
    <path
       fill="#3f9177"
       d="m 7.8319,27.2692 c -1.448,-1.75 -4.603,-0.454 -4.171,1.815 1.708,1.254 4.085,0.433 4.171,-1.815"
       id="path10" />
    <path
       fill="#72be44"
       d="m 8.9339,19.965 c 0.735,-1.103 -3.847,-3.782 -4.084,-1.318 -0.173,1.75 3.177,2.636 4.084,1.318"
       id="path12" />
    <path
       fill="#3f9177"
       d="m 31.7123,23.9196 c 2.334,6.051 6.916,1.253 8.255,-0.389 -4.171,-3.803 -7.736,-3.523 -8.255,0.389"
       id="path14" />
    <path
       fill="#3f9177"
       d="m 40.3783,22.2556 c -0.864,-1.988 3.89,-4.084 4.711,-1.534 0.13,0.388 -0.432,0.994 -0.497,1.058 -0.821,0.865 -3.501,2.075 -4.214,0.476"
       id="path16" />
    <path
       fill="#72be44"
       d="m 40.5082,25.0002 c 2.269,-2.788 6.483,-0.302 4.517,1.34 -1.211,1.037 -3.891,0.497 -4.517,-1.34"
       id="path18" />
    <path
       fill="#3f9177"
       d="m 37.6551,27.2692 c 1.448,-1.75 4.604,-0.454 4.171,1.815 -1.707,1.254 -4.085,0.433 -4.171,-1.815"
       id="path20" />
    <path
       fill="#72be44"
       d="m 36.5746,19.965 c -0.648,-1.772 3.847,-3.76 4.084,-1.318 0.174,1.75 -3.436,3.111 -4.084,1.318"
       id="path22" />
    <path
       fill="#006680"
       d="m 22.6141,7.8845 c -2.291,2.118 -8.882,9.033 0.194,11.799 5.641,-1.123 5.77,-6.094 -0.194,-11.799"
       id="path24" />
    <path
       fill="#006680"
       d="m 24.4296,7.1496 c 2.636,0.735 5.554,-6.094 1.772,-7.024 -0.584,-0.151 -1.405,0.735 -1.491,0.821 -1.211,1.297 -2.075,5.706 -0.281,6.203"
       id="path26" />
    <path
       fill="#006680"
       d="m 20.388,7.236 c 0.151,0.043 0.411,0 0.519,-0.108 3.609,-2.594 -0.735,-9.379 -2.939,-6.375 -1.362,1.923 -0.325,5.77 2.42,6.483"
       id="path28" />
    <path
       fill="#006680"
       d="m 17.3627,11.6447 c 2.42,-2.27 -0.541,-7.218 -3.069,-5.9 -2.182,1.513 -0.194,5.986 3.069,5.9"
       id="path30" />
    <path
       fill="#006680"
       d="m 28.1463,12.4875 c 2.658,0.756 5.1,-5.986 1.513,-6.094 -2.594,-0.065 -4.214,5.316 -1.513,6.094"
       id="path32" />
    <path
       fill="#3f9177"
       d="m 14.8124,37.2966 c 2.702,-1.556 3.652,-3.393 1.858,-5.727 -3.004,1.492 -2.398,3.61 -1.858,5.727"
       id="path34" />
    <path
       fill="#006680"
       d="m 10.9007,32.2614 c 0.973,-0.951 2.14,-1.253 2.982,-2.636 -3.285,-1.686 -6.44,1.707 -7.304,4.322 3.112,1.383 7.045,-0.086 7.412,-3.998 -0.885,1.275 -1.966,1.88 -3.09,2.312"
       id="path36" />
    <path
       fill="#3f9177"
       d="m 30.0697,31.57 c -1.793,2.334 -0.821,4.171 1.859,5.727 0.561,-2.118 1.167,-4.236 -1.859,-5.727"
       id="path38" />
    <path
       fill="#72be44"
       d="m 30.1131,19.2302 c -3.415,1.232 -4.884,3.155 -3.285,6.202 3.761,-1.102 3.501,-3.652 3.285,-6.202"
       id="path40" />
    <path
       fill="#72be44"
       d="m 15.2665,18.3439 c 0.064,1.794 0.108,3.631 2.853,4.084 0.842,-2.269 -0.346,-3.522 -2.853,-4.084"
       id="path42" />
    <path
       fill="#72be44"
       d="m 13.8617,17.739 c -1.556,-0.778 -2.356,-2.096 -3.047,-3.479 1.124,1.296 2.204,2.636 3.76,3.608 0.886,-4.991 -2.096,-7.261 -6.137,-8.817 -1.47,4.971 1.188,8.731 5.424,8.688"
       id="path44" />
    <path
       fill="#72be44"
       d="m 31.6473,17.739 c 1.556,-0.778 2.356,-2.096 3.047,-3.479 -1.124,1.296 -2.204,2.636 -3.76,3.608 -0.886,-4.991 2.096,-7.282 6.159,-8.817 1.448,4.971 -1.21,8.731 -5.446,8.688"
       id="path46" />
    <path
       fill="#006680"
       d="m 32.8793,29.6032 c 0.843,1.383 2.01,1.686 2.982,2.637 -1.124,-0.432 -2.204,-1.037 -3.09,-2.334 0.346,3.912 4.3,5.381 7.391,3.998 -0.843,-2.572 -3.998,-5.987 -7.283,-4.301"
       id="path48" />
    <path
       fill="#006680"
       d="m 19.9559,45.8552 c -4.193,0.756 -8.104,1.794 -11.648,3.22 3.781,-0.692 9.206,-1.534 14.673,-1.534 5.468,0 10.892,0.864 14.674,1.534 -5.251,-2.572 -11.95,-3.307 -11.95,-3.307 -0.865,-9.379 1.534,-14.652 5.121,-19.558 -3.825,-0.669 -2.766,4.344 -4.949,3.89 -3.025,-0.648 0.433,-7.52 -1.167,-9.682 -1.729,0.908 -0.972,5.23 -2.269,6.484 -1.361,-1.643 -0.67,-5.814 -2.853,-6.699 -1.231,2.031 1.514,5.77 0.67,7.239 -1.88,-0.519 -2.615,-4.387 -4.668,-4.387 -0.605,2.183 3.242,4.106 3.307,5.943 -1.318,0.194 -2.658,-2.118 -4.538,-1.988 0.972,2.226 2.701,2.204 4.019,4.02 2.594,3.608 1.686,7.088 1.557,11.691 v 3.134 z"
       id="path50" />
    <path
       fill="#000000"
       d="m 108.326,3.6664 0.907,-2.464 0.886,2.464 z m 1.296,-3.264 h -0.756 l -2.075,5.511 h 0.735 l 0.583,-1.6 h 2.227 l 0.583,1.6 h 0.757 z m -3.263,4.863 h -3.328 l 3.328,-4.236 v -0.627 h -4.085 v 0.649 h 3.242 l -3.349,4.257 v 0.605 h 4.192 z m -8.817,-4.863 v 5.511 h 3.932 v -0.648 h -3.262 v -1.902 h 2.961 v -0.648 h -2.94 v -1.664 h 3.264 v -0.649 z m -2.81,2.68 c 0.649,0 1.08,-0.389 1.08,-1.016 0,-0.713 -0.431,-1.015 -1.101,-1.015 h -1.773 v 2.053 h 1.794 z m 1.707,2.831 h -0.691 c -0.065,-0.151 -0.109,-0.346 -0.109,-0.605 v -0.756 c 0,-0.54 -0.28,-0.822 -0.907,-0.822 h -1.794 v 2.183 h -0.67 v -5.511 h 2.443 c 1.124,0 1.794,0.692 1.794,1.664 0,0.583 -0.282,1.059 -0.757,1.34 0.367,0.216 0.584,0.606 0.584,1.167 v 0.692 c -0.023,0.172 0.043,0.475 0.107,0.648 z m -7.477,-0.561 c -0.929,0 -1.448,-0.606 -1.448,-1.427 v -3.544 h -0.669 v 3.544 c 0,1.232 0.842,2.075 2.117,2.075 1.254,0 2.118,-0.843 2.118,-2.075 v -3.544 h -0.67 v 3.544 c -0.021,0.821 -0.519,1.427 -1.448,1.427 z m -2.787,-4.323 v -0.648 h -4.15 v 0.648 h 1.729 v 4.863 h 0.67 v -4.863 z m -6.289,0.195 -0.909,2.463 h 1.773 z m -1.124,3.089 -0.583,1.6 h -0.736 l 2.075,-5.511 h 0.756 l 2.053,5.511 h -0.756 l -0.584,-1.6 z M 76.73,0.4024 h -0.67 v 4.474 l -2.961,-4.474 h -0.755 v 5.511 h 0.669 v -4.495 l 2.96,4.495 h 0.757 z m -7.52,3.631 h 2.161 V 3.3854 H 69.21 Z m -2.745,1.967 c 1.232,0 2.075,-0.584 2.075,-1.664 0,-1.06 -0.757,-1.405 -1.945,-1.621 -1.124,-0.216 -1.383,-0.454 -1.383,-0.93 0,-0.518 0.388,-0.886 1.253,-0.886 0.821,0 1.275,0.433 1.275,1.08 h 0.691 c 0,-1.058 -0.755,-1.707 -1.945,-1.707 -1.167,0 -1.923,0.606 -1.923,1.557 0,0.95 0.692,1.317 1.923,1.534 1.211,0.216 1.427,0.519 1.427,0.994 0,0.626 -0.454,1.016 -1.405,1.016 -0.843,0 -1.405,-0.454 -1.405,-1.188 h -0.691 c -0.043,1.08 0.778,1.815 2.053,1.815 z m -3.717,-0.087 h 0.67 v -5.511 h -0.67 z m -3.155,-4.689 -0.886,2.463 h 1.771 z m -1.124,3.089 -0.583,1.6 H 57.15 l 2.075,-5.511 h 0.756 l 2.032,5.511 h -0.756 l -0.584,-1.6 z m -2.01,-3.911 h -1.016 l -1.621,4.647 -1.621,-4.647 h -1.037 v 5.511 h 0.67 v -4.625 l 1.621,4.625 h 0.713 l 1.621,-4.625 v 4.625 h 0.67 z m -7.283,5.511 h 0.67 v -5.511 h -0.67 z m -1.34,-5.511 h -0.67 v 4.474 l -2.961,-4.474 h -0.756 v 5.511 h 0.67 v -4.495 l 2.961,4.495 h 0.756 z m -7.521,0.822 -0.907,2.463 h 1.772 z m -1.123,3.089 -0.584,1.6 h -0.735 l 2.075,-5.511 h 0.756 l 2.054,5.511 h -0.757 l -0.583,-1.6 z m -3.674,-0.28 h 2.161 v -0.648 h -2.161 z m -2.723,1.967 c 1.232,0 2.074,-0.584 2.074,-1.664 0,-1.06 -0.756,-1.405 -1.944,-1.621 -1.124,-0.216 -1.384,-0.454 -1.384,-0.93 0,-0.518 0.389,-0.886 1.254,-0.886 0.821,0 1.253,0.433 1.253,1.08 h 0.692 c 0,-1.058 -0.757,-1.707 -1.945,-1.707 -1.167,0 -1.924,0.606 -1.924,1.557 0,0.95 0.692,1.317 1.924,1.534 1.21,0.216 1.426,0.519 1.426,0.994 0,0.626 -0.454,1.016 -1.405,1.016 -0.843,0 -1.404,-0.454 -1.404,-1.188 H 30.72 c -0.043,1.08 0.8,1.815 2.075,1.815 z m -4.863,-4.776 -0.886,2.442 h 1.772 z m -1.124,3.089 -0.583,1.6 H 25.49 l 2.075,-5.511 h 0.756 l 2.032,5.511 h -0.756 l -0.584,-1.6 z m -2.182,-1.188 c 0,-1.274 -0.908,-2.226 -2.075,-2.226 -1.145,0 -2.075,0.973 -2.075,2.226 0,1.254 0.93,2.227 2.075,2.227 1.146,0 2.075,-0.973 2.075,-2.227 z m 0.67,0 c 0,1.6 -1.232,2.875 -2.723,2.875 -1.513,0 -2.745,-1.254 -2.745,-2.875 0,-1.599 1.232,-2.874 2.745,-2.874 1.513,0 2.723,1.231 2.723,2.874 z m -8.169,2.875 c 1.232,0 2.074,-0.584 2.074,-1.664 0,-1.06 -0.756,-1.405 -1.945,-1.621 -1.123,-0.216 -1.383,-0.454 -1.383,-0.93 0,-0.518 0.39,-0.886 1.254,-0.886 0.821,0 1.253,0.433 1.253,1.08 h 0.692 c 0,-1.058 -0.757,-1.707 -1.945,-1.707 -1.167,0 -1.924,0.606 -1.924,1.557 0,0.95 0.692,1.317 1.924,1.534 1.21,0.216 1.426,0.519 1.426,0.994 0,0.626 -0.454,1.016 -1.405,1.016 -0.843,0 -1.405,-0.454 -1.405,-1.188 h -0.691 c -0.043,1.08 0.8,1.815 2.075,1.815 z m -4.755,0 c 1.232,0 2.075,-0.584 2.075,-1.664 0,-1.06 -0.756,-1.405 -1.967,-1.621 -1.123,-0.216 -1.383,-0.454 -1.383,-0.93 0,-0.518 0.389,-0.886 1.254,-0.886 0.821,0 1.253,0.433 1.253,1.08 h 0.692 c 0,-1.058 -0.757,-1.707 -1.945,-1.707 -1.167,0 -1.924,0.606 -1.924,1.557 0,0.95 0.692,1.317 1.924,1.534 1.21,0.216 1.426,0.519 1.426,0.994 0,0.626 -0.454,1.016 -1.405,1.016 -0.842,0 -1.404,-0.454 -1.404,-1.188 h -0.692 c 0,1.08 0.821,1.815 2.096,1.815 z M 5.803,0.4024 v 5.511 H 9.757 V 5.2654 H 6.472 V 3.3634 H 9.411 V 2.7154 H 6.472 v -1.664 h 3.285 v -0.649 z m -4.258,0.627 v 2.053 h 1.643 c 0.648,0 1.102,-0.303 1.102,-1.016 0,-0.713 -0.454,-1.015 -1.102,-1.015 H 1.545 Z m 0,4.884 h -0.67 v -5.511 h 2.313 c 1.145,0 1.772,0.692 1.772,1.664 0,0.973 -0.649,1.664 -1.772,1.664 H 1.545 Z"
       mask="url(#a)"
       id="path55"
       transform="translate(7,55.307)" />
  </g>
</svg>
