<?xml version="1.0" encoding="utf-8"?>
<!-- Generator: Adobe Illustrator 28.2.0, SVG Export Plug-In . SVG Version: 6.00 Build 0)  -->
<svg version="1.1" id="Layer_1" xmlns="http://www.w3.org/2000/svg" xmlns:xlink="http://www.w3.org/1999/xlink" x="0px" y="0px"
	 viewBox="0 0 50 50" style="enable-background:new 0 0 50 50;" xml:space="preserve">
<style type="text/css">
	.st0{fill-rule:evenodd;clip-rule:evenodd;fill:#3F9177;}
	.st1{fill-rule:evenodd;clip-rule:evenodd;fill:#006580;}
	.st2{fill-rule:evenodd;clip-rule:evenodd;fill:#72BE44;}
</style>
<path class="st0" d="M16.28,24.79c-2.11,5.5-6.3,1.15-7.51-0.36C12.57,20.98,15.82,21.24,16.28,24.79"/>
<path class="st0" d="M8.4,23.28c0.79-1.8-3.54-3.71-4.28-1.4c-0.11,0.36,0.4,0.91,0.45,0.96C5.31,23.64,7.76,24.74,8.4,23.28"/>
<path class="st1" d="M8.24,25.45C6.78,23.1,2.38,25.51,4.16,27C5.29,27.94,7.79,27.4,8.24,25.45"/>
<path class="st0" d="M10.88,27.85c-1.31-1.59-4.19-0.4-3.8,1.65C8.63,30.64,10.8,29.88,10.88,27.85"/>
<path class="st1" d="M11.87,21.19c0.68-1-3.5-3.43-3.72-1.19C7.99,21.6,11.05,22.4,11.87,21.19"/>
<path class="st0" d="M32.61,24.79c2.12,5.5,6.3,1.15,7.51-0.36C36.33,20.98,33.07,21.24,32.61,24.79"/>
<path class="st0" d="M40.5,23.28c-0.79-1.8,3.54-3.71,4.28-1.4c0.11,0.36-0.4,0.91-0.45,0.96C43.58,23.64,41.14,24.74,40.5,23.28"/>
<path class="st1" d="M40.62,25.79c2.06-2.53,5.89-0.27,4.12,1.21C43.61,27.94,41.18,27.46,40.62,25.79"/>
<path class="st0" d="M38.02,27.85c1.31-1.59,4.19-0.4,3.8,1.65C40.26,30.64,38.1,29.88,38.02,27.85"/>
<path class="st1" d="M37.03,21.19c-0.59-1.62,3.5-3.43,3.71-1.19C40.9,21.6,37.62,22.84,37.03,21.19"/>
<path class="st1" d="M24.33,10.21c-2.08,1.92-8.08,8.21,0.17,10.74C29.63,19.91,29.75,15.4,24.33,10.21"/>
<path class="st1" d="M25.98,9.54c2.4,0.67,5.06-5.55,1.62-6.39c-0.53-0.13-1.29,0.68-1.36,0.75C25.13,5.07,24.34,9.08,25.98,9.54"/>
<path class="st1" d="M22.3,9.62c0.14,0.04,0.36-0.01,0.48-0.09c3.29-2.35-0.68-8.54-2.67-5.8C18.85,5.47,19.79,8.96,22.3,9.62"/>
<path class="st1" d="M19.54,13.62c2.2-2.08-0.48-6.58-2.79-5.38C14.77,9.63,16.57,13.71,19.54,13.62"/>
<path class="st1" d="M29.37,14.4c2.42,0.7,4.65-5.45,1.37-5.55C28.38,8.78,26.9,13.69,29.37,14.4"/>
<path class="st0" d="M17.22,36.97c2.46-1.4,3.33-3.09,1.7-5.21C16.18,33.12,16.73,35.05,17.22,36.97"/>
<path class="st2" d="M13.66,32.39c0.88-0.87,1.96-1.14,2.72-2.41c-2.99-1.53-5.86,1.56-6.65,3.93c2.83,1.25,6.42-0.08,6.74-3.64
	C15.68,31.44,14.69,31.99,13.66,32.39"/>
<path class="st0" d="M31.12,31.76c-1.63,2.12-0.76,3.81,1.7,5.21C33.31,35.05,33.86,33.12,31.12,31.76"/>
<path class="st2" d="M31.16,20.53c-3.1,1.12-4.44,2.88-2.99,5.64C31.59,25.17,31.35,22.84,31.16,20.53"/>
<path class="st2" d="M17.64,19.72c0.07,1.64,0.09,3.3,2.59,3.72C21,21.37,19.91,20.24,17.64,19.72"/>
<path class="st2" d="M16.37,19.18c-1.42-0.71-2.15-1.91-2.78-3.17c1.02,1.18,2,2.39,3.43,3.29c0.81-4.54-1.91-6.62-5.59-8.03
	C10.08,15.8,12.51,19.21,16.37,19.18"/>
<path class="st2" d="M32.55,19.18c1.42-0.71,2.15-1.91,2.78-3.17c-1.02,1.18-2,2.39-3.43,3.29c-0.81-4.54,1.91-6.62,5.6-8.03
	C38.83,15.8,36.4,19.21,32.55,19.18"/>
<path class="st2" d="M33.66,29.98c0.77,1.27,1.83,1.53,2.72,2.41c-1.03-0.39-2.02-0.94-2.81-2.12c0.32,3.55,3.91,4.89,6.74,3.64
	C39.52,31.54,36.65,28.44,33.66,29.98"/>
<path class="st1" d="M21.9,44.76c-3.83,0.68-7.38,1.63-10.59,2.92c3.43-0.62,8.38-1.4,13.35-1.4c4.97,0,9.92,0.78,13.35,1.4
	c-4.78-2.34-10.88-3.02-10.88-3.02c-0.79-8.53,1.39-13.34,4.67-17.81c-3.47-0.62-2.52,3.95-4.51,3.53c-2.76-0.58,0.4-6.85-1.06-8.82
	c-1.58,0.83-0.89,4.76-2.06,5.9c-1.24-1.5-0.6-5.29-2.61-6.09c-1.12,1.85,1.38,5.25,0.62,6.59c-1.72-0.48-2.38-3.98-4.25-3.98
	c-0.55,1.98,2.96,3.74,3,5.4c-1.19,0.17-2.42-1.92-4.12-1.81c0.89,2.04,2.47,2,3.66,3.66c2.37,3.29,1.53,6.44,1.42,10.63L21.9,44.76
	L21.9,44.76z"/>
</svg>
