<?xml version="1.0" encoding="utf-8"?>
<!-- Generator: Adobe Illustrator 28.2.0, SVG Export Plug-In . SVG Version: 6.00 Build 0)  -->
<svg version="1.1" id="Layer_1" xmlns="http://www.w3.org/2000/svg" xmlns:xlink="http://www.w3.org/1999/xlink" x="0px" y="0px"
	 viewBox="0 0 50 50" style="enable-background:new 0 0 50 50;" xml:space="preserve">
<style type="text/css">
	.st0{fill-rule:evenodd;clip-rule:evenodd;fill:#EC1C24;}
	.st1{fill-rule:evenodd;clip-rule:evenodd;fill:#FFFFFF;}
</style>
<path class="st0" d="M49.17,24.75c0,13.36-10.83,24.19-24.19,24.19S0.79,38.11,0.79,24.75S11.62,0.56,24.98,0.56
	C38.35,0.56,49.17,11.39,49.17,24.75z"/>
<g>
	<path class="st1" d="M33.56,20.07c0,0-1.34,1.86-2.5,3c0,0-0.88,1.31,0.53,1.58c0,0,1.27,0.51,2.56-0.86c0,0,1.52-1.17,1.27-3.09
		C35.42,20.7,34.76,19.21,33.56,20.07z"/>
	<path class="st1" d="M33.33,18.79c0,0,0.25-2.9-2.96-1.96c0,0-0.39,0.28-0.54,0.86c0,0-1.98,3.73-2.13,3.77
		c-0.16,0.04-1.3,1.28,0.14,1.73c0,0,1.62,0.9,3.16-0.82C30.99,22.38,32.53,20.42,33.33,18.79z"/>
	<path class="st1" d="M27.95,20.1c0,0,0.73-1.13,1.11-2.67c0,0,0.11-0.36,0-1.09c0,0-0.16-1.1-0.5-2.14c0,0-0.21-0.72-1.09-0.68
		c0,0-1.48-0.27-1.63,1.32c0,0-0.52,2.32-0.68,2.86c0,0-0.98,1.69-1.18,2.09c-0.2,0.4-0.89,1.78,1.05,2
		C25.01,21.79,26.86,21.92,27.95,20.1z"/>
	<path class="st1" d="M25.78,12.93c-0.16-0.99-1.52-1.04-1.82-1.05c0,0-0.98,0.01-2.41,0.45c0,0-1.16,0.32-1.95,1.82
		c0,0-0.48,1.14,1.05,0.59l0.64-0.64c0,0,0.98,1.99,3.71,0.63C24.99,14.74,25.94,13.92,25.78,12.93z"/>
	<polygon class="st1" points="5.69,32.08 7.02,31.98 6.74,31.26 	"/>
	<path class="st1" d="M13.49,9.78c0.2,0.05,0.39,0.01,0.58-0.12c0.19-0.13,0.3-0.3,0.31-0.5c0.02-0.2-0.09-0.46-0.31-0.78
		c-0.19-0.27-0.38-0.43-0.58-0.48c-0.2-0.05-0.39-0.01-0.58,0.12c-0.18,0.13-0.28,0.29-0.3,0.5c-0.02,0.2,0.08,0.45,0.28,0.75
		C13.09,9.55,13.29,9.72,13.49,9.78z"/>
	<path class="st1" d="M4.84,25.96c-0.02-0.07-0.06-0.13-0.12-0.17c-0.06-0.04-0.13-0.06-0.21-0.06c-0.11,0.01-0.2,0.05-0.25,0.13
		c-0.06,0.08-0.08,0.21-0.06,0.41l0.03,0.48l0.72-0.05l-0.03-0.46C4.91,26.19,4.88,26.1,4.84,25.96z"/>
	<path class="st1" d="M9.91,13.59c0.14-0.18,0.21-0.33,0.23-0.43c0.02-0.11-0.01-0.22-0.08-0.34C10,12.7,9.85,12.55,9.63,12.38
		c-0.3-0.23-0.54-0.33-0.73-0.32c-0.18,0.01-0.36,0.13-0.53,0.36l-0.16,0.22l1.54,1.16L9.91,13.59z"/>
	<path class="st1" d="M8.35,36.08c-0.11-0.03-0.21-0.01-0.3,0.06C7.96,36.2,7.9,36.29,7.88,36.4c-0.02,0.11,0.03,0.24,0.15,0.41
		l0.18,0.25l0.64-0.46L8.7,36.37C8.58,36.2,8.46,36.1,8.35,36.08z"/>
	<polygon class="st1" points="41.19,36.79 40.39,35.73 39.93,36.36 	"/>
	<polygon class="st1" points="41.29,12.99 40.03,13.42 40.49,14.05 	"/>
	<path class="st1" d="M28.23,6.64c0.23,0.04,0.42,0.01,0.58-0.12s0.27-0.38,0.35-0.77C29.21,5.43,29.2,5.18,29.09,5
		c-0.1-0.18-0.26-0.29-0.49-0.33c-0.22-0.04-0.41,0-0.56,0.13c-0.16,0.13-0.28,0.37-0.34,0.72c-0.07,0.35-0.05,0.61,0.05,0.79
		C27.84,6.49,28.01,6.6,28.23,6.64z"/>
	<path class="st1" d="M24.81,0.11C11.2,0.11,0.16,10.14,0.16,23.76c0,13.61,11.04,25.65,24.65,25.65
		c13.61,0,24.65-11.03,24.65-24.65C49.46,11.14,38.42,0.11,24.81,0.11z M24.74,48.17c-12.84,0-23.29-10.45-23.29-23.29
		c0-6.22,2.42-12.07,6.82-16.47c4.4-4.4,10.25-6.82,16.47-6.82c12.84,0,23.29,10.45,23.29,23.29
		C48.03,37.72,37.58,48.17,24.74,48.17z"/>
	<path class="st1" d="M24.81,8.86c-4.25,0-8.24,1.65-11.24,4.66c-3,3-4.65,6.99-4.65,11.24c0,8.76,7.13,15.9,15.9,15.9
		c8.76,0,15.9-7.13,15.9-15.89C40.71,15.99,33.57,8.86,24.81,8.86z M23.28,39.54c0.05-0.64,0.08-1.11,0.08-1.11
		c0.24-1.12,0.28-0.15,0.28-0.15c0.01,0.45,0.02,0.87,0.02,1.28C23.53,39.55,23.4,39.55,23.28,39.54z M25.96,39.56
		c0.19-1.5,0.33-3.52,0.33-3.52c0.24-1.12,0.28-0.15,0.28-0.15c0.03,1.49,0.04,2.79,0.05,3.61C26.4,39.52,26.18,39.54,25.96,39.56z
		 M29.99,38.67l-0.28-2.74c-0.2-1.23-0.67-2.15-0.67-2.15c1.03,0,2.3-1.5,2.3-1.5c0.68-1.09,0.85-1.87,0.85-1.87l0.16-0.53
		c0.63-0.03,2.29-2.88,2.29-2.88c0.12-1.47-1.06-0.69-1.06-0.69c-2.03,0.93-3.84-0.16-3.84-0.16c-0.33-0.29-1.22-0.19-1.22-0.19
		c-1.33,0.53-2.72-0.29-2.72-0.29c-0.7,1.2,0.38,3.36,0.38,3.36c-0.54-0.13-0.97,0.43-0.97,0.43l0.01-0.05
		c-0.11,0.77-0.48,1.07-0.48,1.07l-0.43,0.26c2.56-3.97-0.43-7.14-0.43-7.14c-1.34-1.36-2.45-1.23-2.45-1.23
		c-0.81,0.61-1.01,0.11-1.01,0.11c-0.06-0.29-0.91-1.7-0.91-1.7c0.36-0.51,0.21-1.55,0.21-1.55c-0.49-0.83,1.12-0.37,1.12-0.37
		c2.98-0.08,3.94-1.92,3.94-1.92c0.79-1.47-0.8-1.28-0.8-1.28c-0.86,0.13-2.45,0-2.45,0c-1.85-0.35-3.09-0.06-3.09-0.06l-2.66,2.72
		c-0.06,0.6-0.67,7.42-0.67,7.42l3,6.82c0.16,0.46,0.41,0.5,0.41,0.5l0.84-0.02c0.51,0.09,0.48,0.28,0.48,0.28l-0.31,0.26
		c-0.79,0.13-0.68,0.73-0.68,0.73c-0.11,0.76-0.21,2.71-0.21,2.71l-0.01,1.23c-5.11-2.35-8.67-7.5-8.67-13.5
		c0-8.21,6.65-14.86,14.86-14.86s14.86,6.65,14.86,14.86C39.67,31.14,35.64,36.56,29.99,38.67z"/>
	<path class="st1" d="M24.74,2.37c-6.01,0-11.66,2.34-15.92,6.59s-6.59,9.9-6.59,15.92c0,12.41,10.1,22.51,22.51,22.51h0
		c12.41,0,22.51-10.1,22.51-22.51C47.25,12.47,37.15,2.37,24.74,2.37z M45.88,22.55l-3.5,0.49l-0.15-1.08l3.5-0.49L45.88,22.55z
		 M44.7,17.52l-2.52,0.87L42.74,20l-0.82,0.28L41,17.64l3.34-1.15L44.7,17.52z M41.68,11.97l0.7,0.96l-2.08,3.15l-0.67-0.93
		L40,14.68l-0.73-1.01l-0.57,0.21l-0.66-0.9L41.68,11.97z M38.38,8.5l0.81,0.73l-2.37,2.62l-0.81-0.73L38.38,8.5z M32.4,6.8
		c0.28-0.52,0.62-0.84,1.04-0.97c0.42-0.13,0.89-0.06,1.39,0.2c0.39,0.21,0.66,0.45,0.8,0.73s0.18,0.61,0.11,1L34.79,7.5
		c0.02-0.11,0.03-0.2,0.02-0.26c-0.01-0.1-0.05-0.19-0.11-0.28c-0.06-0.08-0.13-0.15-0.23-0.2c-0.22-0.12-0.43-0.12-0.64-0.01
		c-0.16,0.08-0.31,0.27-0.46,0.54c-0.18,0.35-0.26,0.61-0.22,0.8c0.04,0.18,0.15,0.33,0.34,0.43c0.19,0.1,0.35,0.12,0.5,0.07
		c0.15-0.05,0.3-0.17,0.45-0.34l0.71,0.71c-0.18,0.21-0.38,0.36-0.58,0.45c-0.21,0.09-0.42,0.13-0.65,0.12
		c-0.23-0.02-0.48-0.1-0.76-0.25c-0.34-0.18-0.59-0.38-0.75-0.59c-0.16-0.21-0.26-0.48-0.28-0.82C32.1,7.55,32.19,7.19,32.4,6.8z
		 M26.62,5.31c0.11-0.57,0.35-0.98,0.73-1.23c0.38-0.25,0.85-0.33,1.41-0.22c0.58,0.11,0.99,0.36,1.25,0.73s0.33,0.83,0.22,1.39
		c-0.08,0.41-0.21,0.73-0.4,0.96c-0.19,0.23-0.42,0.4-0.71,0.49c-0.29,0.09-0.62,0.1-1.01,0.03c-0.39-0.08-0.7-0.2-0.94-0.38
		c-0.23-0.18-0.4-0.41-0.51-0.71C26.56,6.07,26.54,5.71,26.62,5.31z M23.27,5.87c-0.09-0.07-0.28-0.12-0.58-0.16
		c-0.49-0.07-0.84-0.18-1.06-0.34c-0.22-0.16-0.34-0.38-0.37-0.65c-0.02-0.18,0.02-0.36,0.11-0.53c0.09-0.17,0.24-0.31,0.44-0.42
		c0.2-0.11,0.49-0.18,0.85-0.21c0.45-0.04,0.8,0.01,1.05,0.16c0.25,0.15,0.42,0.4,0.49,0.76l-1.02,0.15
		c-0.04-0.16-0.11-0.27-0.2-0.33c-0.09-0.06-0.22-0.09-0.37-0.08c-0.13,0.01-0.22,0.05-0.28,0.11c-0.06,0.06-0.09,0.13-0.08,0.2
		c0.01,0.06,0.04,0.11,0.09,0.14c0.06,0.04,0.18,0.08,0.38,0.1c0.49,0.06,0.83,0.14,1.05,0.23c0.22,0.09,0.38,0.2,0.48,0.35
		c0.11,0.15,0.17,0.32,0.19,0.51c0.02,0.23-0.03,0.44-0.13,0.64c-0.11,0.2-0.27,0.36-0.48,0.48C23.62,7.1,23.34,7.17,23,7.2
		c-0.6,0.05-1.02-0.03-1.28-0.24c-0.25-0.21-0.41-0.49-0.47-0.85l1.03-0.15c0.04,0.17,0.09,0.29,0.17,0.37
		c0.13,0.13,0.29,0.19,0.5,0.17c0.16-0.01,0.27-0.06,0.35-0.14c0.08-0.08,0.11-0.17,0.11-0.27C23.4,6.01,23.35,5.93,23.27,5.87z
		 M11.61,8.5c0.08-0.45,0.35-0.84,0.82-1.17c0.48-0.34,0.94-0.47,1.39-0.39c0.44,0.08,0.83,0.35,1.15,0.81
		c0.24,0.34,0.38,0.66,0.41,0.95s-0.01,0.58-0.14,0.85c-0.13,0.27-0.36,0.52-0.68,0.74c-0.33,0.23-0.63,0.36-0.92,0.41
		c-0.29,0.05-0.58,0-0.86-0.13c-0.29-0.13-0.56-0.37-0.79-0.71C11.66,9.41,11.53,8.95,11.61,8.5z M7.89,11.74
		c0.19-0.25,0.38-0.43,0.57-0.54c0.19-0.11,0.39-0.16,0.6-0.16c0.21,0,0.41,0.03,0.62,0.12c0.21,0.08,0.41,0.2,0.6,0.34
		c0.3,0.23,0.51,0.44,0.63,0.63c0.11,0.19,0.18,0.39,0.2,0.6c0.02,0.21,0,0.39-0.07,0.56c-0.09,0.23-0.2,0.43-0.31,0.58l-0.98,1.3
		l-2.82-2.13L7.89,11.74z M5.59,15.43l3.2,1.5l-0.46,0.99l-3.21-1.5L5.59,15.43z M4.22,18.83l0.85,0.18L4.84,20.1l2.61,0.56
		l-0.23,1.07l-2.61-0.56l-0.23,1.09l-0.85-0.18L4.22,18.83z M3.46,26.08c-0.02-0.34-0.01-0.6,0.03-0.78
		c0.04-0.18,0.14-0.33,0.29-0.45c0.15-0.12,0.33-0.19,0.56-0.2c0.2-0.01,0.37,0.01,0.52,0.09c0.15,0.08,0.27,0.18,0.37,0.32
		c0.06,0.09,0.12,0.21,0.17,0.37c0.03-0.13,0.07-0.23,0.11-0.29c0.03-0.04,0.08-0.11,0.17-0.19c0.09-0.08,0.16-0.14,0.21-0.17
		l0.98-0.6l0.09,1.23l-1.04,0.66c-0.13,0.08-0.22,0.16-0.26,0.21c-0.05,0.08-0.07,0.17-0.06,0.27l0.01,0.1l1.43-0.1l0.08,1.1
		l-3.53,0.24L3.46,26.08z M4.62,31.84l2.82-2.51l0.41,1.07l-0.48,0.37l0.45,1.16l0.61-0.05l0.4,1.04l-3.78,0.03L4.62,31.84z
		 M8.28,38.36l-1.07-1.47c-0.23-0.32-0.33-0.61-0.29-0.88S7.12,35.5,7.4,35.3c0.29-0.21,0.58-0.29,0.87-0.23
		c0.29,0.06,0.56,0.26,0.82,0.61l0.35,0.49l1.06-0.77l0.65,0.89L8.28,38.36z M24.81,41.43c-9.2,0-16.67-7.48-16.67-16.67
		c0-4.45,1.73-8.64,4.88-11.79c3.15-3.15,7.34-4.88,11.79-4.88c9.2,0,16.67,7.48,16.67,16.68C41.49,33.95,34.01,41.43,24.81,41.43z
		 M41.57,37.83l-3.64-1.01l0.67-0.92l0.58,0.2l0.73-1.01l-0.37-0.48l0.66-0.9l2.08,3.15L41.57,37.83z M43.98,34l-0.81-0.31l0.4-1.04
		l-2.49-0.96l0.39-1.02l2.49,0.95l0.4-1.04l0.81,0.31L43.98,34z M45.63,27.82c-0.19,0.22-0.46,0.34-0.83,0.35l0.03-1.03
		c0.16-0.01,0.28-0.06,0.36-0.14c0.08-0.08,0.13-0.2,0.14-0.35c0.01-0.13-0.01-0.23-0.06-0.29c-0.05-0.07-0.11-0.11-0.19-0.11
		c-0.06-0.01-0.11,0.02-0.16,0.06c-0.05,0.05-0.11,0.17-0.16,0.35c-0.14,0.47-0.28,0.8-0.4,1c-0.12,0.2-0.26,0.34-0.43,0.41
		c-0.16,0.08-0.34,0.11-0.53,0.1c-0.23-0.02-0.43-0.1-0.61-0.24c-0.18-0.14-0.31-0.33-0.39-0.56s-0.1-0.52-0.07-0.86
		c0.05-0.6,0.2-1,0.46-1.21c0.25-0.21,0.56-0.32,0.91-0.31l-0.03,1.04c-0.17,0.01-0.3,0.04-0.4,0.1c-0.15,0.1-0.24,0.25-0.26,0.46
		c-0.01,0.16,0.01,0.28,0.08,0.37c0.06,0.09,0.15,0.14,0.24,0.15c0.09,0.01,0.18-0.03,0.26-0.1c0.08-0.07,0.16-0.25,0.25-0.54
		c0.15-0.47,0.32-0.8,0.52-0.98c0.19-0.19,0.43-0.27,0.71-0.25c0.18,0.01,0.35,0.08,0.5,0.2c0.15,0.12,0.26,0.29,0.34,0.51
		c0.08,0.22,0.09,0.51,0.06,0.88C45.93,27.26,45.81,27.6,45.63,27.82z"/>
</g>
</svg>
