<?xml version="1.0" encoding="UTF-8" standalone="no"?>
<svg
   xmlns:dc="http://purl.org/dc/elements/1.1/"
   xmlns:cc="http://creativecommons.org/ns#"
   xmlns:rdf="http://www.w3.org/1999/02/22-rdf-syntax-ns#"
   xmlns:svg="http://www.w3.org/2000/svg"
   xmlns="http://www.w3.org/2000/svg"
   xmlns:sodipodi="http://sodipodi.sourceforge.net/DTD/sodipodi-0.dtd"
   xmlns:inkscape="http://www.inkscape.org/namespaces/inkscape"
   version="1.1"
   id="svg2"
   xml:space="preserve"
   width="192"
   height="101"
   viewBox="0 0 191.99999 101"
   sodipodi:docname="PS Logo.svg"
   inkscape:version="1.0.2 (e86c870879, 2021-01-15)"><metadata
     id="metadata8"><rdf:RDF><cc:Work
         rdf:about=""><dc:format>image/svg+xml</dc:format><dc:type
           rdf:resource="http://purl.org/dc/dcmitype/StillImage" /><dc:title></dc:title></cc:Work></rdf:RDF></metadata><defs
     id="defs6"><clipPath
       clipPathUnits="userSpaceOnUse"
       id="clipPath20"><path
         d="M 0,595.276 H 841.89 V 0 H 0 Z"
         id="path18" /></clipPath></defs><sodipodi:namedview
     pagecolor="#ffffff"
     bordercolor="#666666"
     borderopacity="1"
     objecttolerance="10"
     gridtolerance="10"
     guidetolerance="10"
     inkscape:pageopacity="0"
     inkscape:pageshadow="2"
     inkscape:window-width="1920"
     inkscape:window-height="1017"
     id="namedview4"
     showgrid="false"
     inkscape:zoom="5.6568543"
     inkscape:cx="88.80005"
     inkscape:cy="45.312922"
     inkscape:window-x="-8"
     inkscape:window-y="-8"
     inkscape:window-maximized="1"
     inkscape:current-layer="g16" /><g
     id="g10"
     inkscape:groupmode="layer"
     inkscape:label="normas-PS"
     transform="matrix(1.3333333,0,0,-1.3333333,0,793.70133)"><g
       id="g14"><g
         id="g16"
         clip-path="url(#clipPath20)"><g
           id="g176"
           transform="translate(102.45508,564.76561)"><path
             d="M 0,0 V -3.338 C 0,-5.846 -0.665,-7.04 -4.438,-7.04 h -6.547 V 3.53 h 6.547 C -0.686,3.53 0,2.342 0,0 m -3.942,12.194 h -17.384 v -39.359 h 10.341 v 11.633 h 6.547 c 10.083,0 14.779,3.598 14.779,11.328 v 5.012 c 0,7.875 -4.406,11.386 -14.283,11.386"
             style="fill:#e31f27;fill-opacity:1;fill-rule:nonzero;stroke:none"
             id="path178" /></g><g
           id="g180"
           transform="translate(131.11178,561.11621)"><path
             d="m 0,0 c -6.291,1.391 -6.291,1.391 -6.291,4.69 0,2.407 0.537,3.012 4.563,3.012 3.83,0 6.956,-0.383 11.383,-1.088 l 0.536,-0.086 1.056,8.238 -0.47,0.094 c -5.268,1.056 -9.775,1.278 -12.629,1.278 -11.05,0 -14.779,-2.83 -14.779,-11.215 0,-8.71 1.777,-10.6 11.881,-12.645 6.53,-1.333 6.53,-1.591 6.53,-4.748 0,-2.708 -0.402,-3.584 -5.181,-3.584 -3.727,0 -7.461,0.578 -11.753,1.822 l -0.536,0.155 -1.767,-7.613 0.393,-0.166 c 3.724,-1.577 8.785,-2.518 13.538,-2.518 13.088,0 15.648,4.344 15.648,11.848 C 12.122,-4.43 11.077,-2.46 0,0"
             style="fill:#e31f27;fill-opacity:1;fill-rule:nonzero;stroke:none"
             id="path182" /></g><g
           id="g184"
           transform="translate(75.723185,557.35651)"><path
             d="m 0,0 c 0,-20.437 -16.564,-37.006 -37.005,-37.006 -20.443,0 -37.01,16.569 -37.01,37.006 0,20.439 16.567,37.009 37.01,37.009 C -16.564,37.009 0,20.439 0,0"
             style="fill:#e31f27;fill-opacity:1;fill-rule:evenodd;stroke:none"
             id="path186" /></g><g
           id="g188"
           transform="translate(51.829585,564.51861)"><path
             d="m 0,0 c 0,0 -2.044,-2.841 -3.822,-4.586 0,0 -1.35,-2.006 0.806,-2.427 0,0 1.938,-0.781 3.923,1.313 0,0 2.323,1.794 1.943,4.721 0,0 -1.009,2.287 -2.85,0.979"
             style="fill:#ffffff;fill-opacity:1;fill-rule:evenodd;stroke:none"
             id="path190" /></g><g
           id="g192"
           transform="translate(51.477585,566.46291)"><path
             d="m 0,0 c 0,0 0.376,4.438 -4.518,2.99 0,0 -0.595,-0.424 -0.835,-1.32 0,0 -3.027,-5.708 -3.264,-5.767 -0.24,-0.059 -1.982,-1.954 0.212,-2.642 0,0 2.47,-1.38 4.835,1.259 0,0 2.361,2.988 3.57,5.48"
             style="fill:#ffffff;fill-opacity:1;fill-rule:evenodd;stroke:none"
             id="path194" /></g><g
           id="g196"
           transform="translate(43.249985,564.46191)"><path
             d="m 0,0 c 0,0 1.108,1.738 1.698,4.091 0,0 0.168,0.545 0,1.67 0,0 -0.246,1.676 -0.773,3.267 0,0 -0.318,1.104 -1.663,1.044 0,0 -2.272,0.403 -2.505,-2.016 0,0 -0.804,-3.554 -1.041,-4.379 0,0 -1.498,-2.58 -1.806,-3.197 -0.306,-0.614 -1.355,-2.719 1.601,-3.059 0,0 2.819,-0.202 4.489,2.579"
             style="fill:#ffffff;fill-opacity:1;fill-rule:evenodd;stroke:none"
             id="path198" /></g><g
           id="g200"
           transform="translate(39.932085,575.44051)"><path
             d="m 0,0 c -0.246,1.515 -2.333,1.589 -2.779,1.595 0,0 -1.495,-0.006 -3.688,-0.692 0,0 -1.77,-0.495 -2.981,-2.778 0,0 -0.736,-1.745 1.598,-0.903 l 0.972,0.971 c 0,0 1.501,-3.049 5.669,-0.968 0,0 1.459,1.254 1.209,2.775"
             style="fill:#ffffff;fill-opacity:1;fill-rule:evenodd;stroke:none"
             id="path202" /></g><g
           id="g204"
           transform="translate(9.206985,546.14461)"><path
             d="M 0,0 2.027,0.138 1.598,1.253 Z"
             style="fill:#ffffff;fill-opacity:1;fill-rule:evenodd;stroke:none"
             id="path206" /></g><g
           id="g208"
           transform="translate(21.134785,580.25981)"><path
             d="M 0,0 C 0.309,-0.078 0.602,-0.019 0.884,0.181 1.185,0.39 1.343,0.646 1.371,0.947 1.399,1.249 1.234,1.654 0.888,2.149 0.598,2.567 0.299,2.813 -0.003,2.885 -0.305,2.963 -0.604,2.894 -0.891,2.694 -1.166,2.505 -1.321,2.249 -1.349,1.937 -1.383,1.626 -1.233,1.243 -0.922,0.795 -0.61,0.346 -0.302,0.078 0,0"
             style="fill:#ffffff;fill-opacity:1;fill-rule:evenodd;stroke:none"
             id="path210" /></g><g
           id="g212"
           transform="translate(7.9013847,555.50301)"><path
             d="M 0,0 C -0.031,0.112 -0.097,0.196 -0.19,0.262 -0.287,0.327 -0.393,0.355 -0.511,0.346 -0.686,0.334 -0.816,0.274 -0.9,0.149 -0.984,0.037 -1.019,-0.175 -0.997,-0.477 l 0.05,-0.732 1.1,0.075 L 0.1,-0.43 C 0.093,-0.358 0.062,-0.212 0,0"
             style="fill:#ffffff;fill-opacity:1;fill-rule:evenodd;stroke:none"
             id="path214" /></g><g
           id="g216"
           transform="translate(15.658185,574.42191)"><path
             d="M 0,0 C 0.212,0.28 0.33,0.498 0.355,0.664 0.38,0.828 0.343,1 0.243,1.181 0.14,1.364 -0.087,1.586 -0.436,1.847 -0.891,2.199 -1.262,2.358 -1.545,2.337 -1.826,2.312 -2.094,2.134 -2.358,1.785 l -0.253,-0.336 2.368,-1.776 z"
             style="fill:#ffffff;fill-opacity:1;fill-rule:evenodd;stroke:none"
             id="path218" /></g><g
           id="g220"
           transform="translate(13.269085,540.02641)"><path
             d="m 0,0 c -0.168,0.034 -0.321,0.003 -0.461,-0.1 -0.14,-0.099 -0.221,-0.23 -0.253,-0.391 -0.024,-0.16 0.05,-0.363 0.234,-0.617 l 0.277,-0.387 0.979,0.71 -0.237,0.331 C 0.342,-0.199 0.168,-0.043 0,0"
             style="fill:#ffffff;fill-opacity:1;fill-rule:evenodd;stroke:none"
             id="path222" /></g><g
           id="g224"
           transform="translate(63.502485,538.92681)"><path
             d="M 0,0 -1.222,1.623 -1.925,0.66 Z"
             style="fill:#ffffff;fill-opacity:1;fill-rule:evenodd;stroke:none"
             id="path226" /></g><g
           id="g228"
           transform="translate(63.651885,575.34671)"><path
             d="m 0,0 -1.919,-0.66 0.698,-0.966 z"
             style="fill:#ffffff;fill-opacity:1;fill-rule:evenodd;stroke:none"
             id="path230" /></g><g
           id="g232"
           transform="translate(43.676785,585.04491)"><path
             d="M 0,0 C 0.355,-0.065 0.648,-0.007 0.891,0.184 1.125,0.377 1.302,0.77 1.42,1.367 1.514,1.865 1.482,2.249 1.327,2.514 1.168,2.788 0.919,2.956 0.573,3.024 0.243,3.087 -0.047,3.024 -0.292,2.832 -0.536,2.636 -0.71,2.265 -0.816,1.723 -0.922,1.193 -0.897,0.788 -0.748,0.508 -0.592,0.24 -0.339,0.071 0,0"
             style="fill:#ffffff;fill-opacity:1;fill-rule:evenodd;stroke:none"
             id="path234" /></g><g
           id="g236"
           transform="translate(38.349085,521.53421)"><path
             d="m 0,0 c -19.647,0 -35.632,15.979 -35.632,35.623 0,9.517 3.704,18.461 10.433,25.19 6.726,6.732 15.676,10.433 25.193,10.433 C 19.639,71.246 35.62,55.262 35.62,35.62 35.62,15.979 19.643,0 0,0 m 0.104,73.514 c -20.833,0 -37.71,-16.879 -37.71,-37.706 0,-20.827 16.881,-37.705 37.712,-37.707 20.823,0 37.704,16.878 37.701,37.703 0,20.825 -16.881,37.71 -37.703,37.71"
             style="fill:#ffffff;fill-opacity:1;fill-rule:evenodd;stroke:none"
             id="path238" /></g><g
           id="g240"
           transform="translate(46.380885,536.05471)"><path
             d="m 0,0 -0.427,4.189 c -0.305,1.882 -1.025,3.29 -1.025,3.29 1.582,0 3.523,2.293 3.523,2.293 1.048,1.666 1.305,2.854 1.305,2.854 l 0.244,0.816 c 0.965,0.034 3.502,4.396 3.502,4.396 0.173,2.246 -1.633,1.062 -1.633,1.062 -3.109,-1.424 -5.866,0.249 -5.866,0.249 -0.502,0.449 -1.863,0.284 -1.863,0.284 -2.041,-0.811 -4.175,0.451 -4.175,0.451 -1.068,-1.835 0.577,-5.133 0.577,-5.133 C -6.667,14.952 -7.314,14.1 -7.314,14.1 l 0.005,0.081 C -7.48,12.993 -8.038,12.548 -8.038,12.548 l -0.653,-0.402 c 3.924,6.069 -0.661,10.922 -0.661,10.922 -2.05,2.076 -3.745,1.875 -3.745,1.875 -1.234,-0.937 -1.551,-0.158 -1.551,-0.158 -0.093,0.443 -1.386,2.607 -1.386,2.607 0.558,0.773 0.323,2.362 0.323,2.362 -0.747,1.262 1.711,0.573 1.711,0.573 4.554,0.118 6.034,2.922 6.034,2.922 1.206,2.246 -1.224,1.962 -1.224,1.962 -1.321,-0.205 -3.754,0 -3.754,0 -2.838,0.537 -4.726,0.088 -4.726,0.088 l -4.068,-4.156 c -0.1,-0.916 -1.031,-11.355 -1.031,-11.355 l 4.588,-10.431 c 0.244,-0.707 0.63,-0.765 0.63,-0.765 l 1.28,0.028 c 0.779,-0.143 0.726,-0.43 0.726,-0.43 L -16.019,7.791 C -17.234,7.592 -17.062,6.676 -17.062,6.676 -17.234,5.514 -17.39,2.521 -17.39,2.521 l -0.012,-1.879 c -7.819,3.591 -13.265,11.473 -13.265,20.644 0,12.555 10.181,22.729 22.739,22.729 12.548,0 22.729,-10.174 22.729,-22.732 C 14.807,11.523 8.639,3.218 0,0 m -6.175,-1.358 c 0.294,2.29 0.496,5.385 0.496,5.385 0.364,1.717 0.429,0.228 0.429,0.228 0.047,-2.283 0.073,-4.268 0.085,-5.524 -0.336,-0.036 -0.673,-0.061 -1.01,-0.089 m -4.102,0.03 c 0.075,0.979 0.118,1.698 0.118,1.698 0.362,1.717 0.43,0.231 0.43,0.231 0.016,-0.689 0.028,-1.336 0.038,-1.959 -0.197,0.015 -0.396,0.012 -0.586,0.03 m 2.349,46.932 c -6.498,0 -12.605,-2.53 -17.199,-7.122 -4.593,-4.594 -7.125,-10.698 -7.123,-17.196 0,-13.407 10.911,-24.314 24.322,-24.314 13.405,0 24.317,10.907 24.317,24.311 C 16.386,34.694 5.473,45.604 -7.928,45.604"
             style="fill:#ffffff;fill-opacity:1;fill-rule:evenodd;stroke:none"
             id="path242" /></g><g
           id="g244"
           transform="translate(70.287085,552.65531)"><path
             d="m 0,0 c -0.28,-0.339 -0.707,-0.517 -1.274,-0.535 l 0.044,1.576 c 0.249,0.021 0.433,0.093 0.554,0.218 0.121,0.118 0.196,0.299 0.215,0.536 0.019,0.193 -0.013,0.343 -0.087,0.448 C -0.62,2.35 -0.716,2.405 -0.838,2.418 -0.919,2.424 -1.003,2.391 -1.081,2.318 -1.152,2.243 -1.237,2.063 -1.327,1.772 -1.545,1.062 -1.744,0.556 -1.938,0.253 -2.125,-0.05 -2.339,-0.259 -2.592,-0.38 c -0.249,-0.128 -0.523,-0.168 -0.816,-0.149 -0.349,0.034 -0.654,0.155 -0.928,0.374 -0.277,0.215 -0.48,0.505 -0.599,0.859 -0.124,0.353 -0.159,0.792 -0.114,1.317 0.084,0.915 0.311,1.538 0.697,1.861 0.383,0.321 0.851,0.479 1.399,0.473 L -2.99,2.767 C -3.252,2.754 -3.458,2.701 -3.595,2.608 -3.835,2.455 -3.962,2.219 -3.987,1.9 -4.012,1.664 -3.969,1.48 -3.873,1.34 c 0.101,-0.141 0.226,-0.218 0.372,-0.231 0.143,-0.009 0.267,0.04 0.392,0.156 0.119,0.112 0.249,0.386 0.387,0.819 0.226,0.72 0.491,1.222 0.787,1.508 0.303,0.29 0.661,0.415 1.085,0.383 0.276,-0.031 0.529,-0.13 0.763,-0.311 C 0.146,3.477 0.315,3.222 0.43,2.888 0.542,2.549 0.573,2.1 0.53,1.542 0.467,0.854 0.293,0.337 0,0 m -2.511,-9.451 -1.246,0.476 0.611,1.588 -3.801,1.462 0.592,1.558 3.807,-1.458 0.61,1.592 1.25,-0.484 z m -3.688,-5.858 -5.571,1.539 1.029,1.416 0.885,-0.312 1.114,1.539 -0.57,0.741 1.003,1.377 3.188,-4.825 z m -25.635,-5.516 c -14.066,0 -25.511,11.448 -25.511,25.512 0,6.815 2.648,13.22 7.47,18.04 4.816,4.812 11.221,7.466 18.041,7.466 14.058,0 25.504,-11.445 25.507,-25.51 0,-14.063 -11.442,-25.508 -25.507,-25.508 m -25.284,4.695 -1.635,2.248 c -0.355,0.489 -0.505,0.942 -0.449,1.353 0.053,0.414 0.293,0.779 0.729,1.091 0.436,0.32 0.878,0.438 1.32,0.351 0.443,-0.084 0.861,-0.398 1.259,-0.943 l 0.536,-0.742 1.627,1.177 0.987,-1.358 z m -5.604,9.987 4.32,3.835 0.627,-1.635 -0.739,-0.571 0.689,-1.772 0.922,0.075 0.616,-1.599 -5.781,-0.034 z m -1.779,8.804 c -0.035,0.517 -0.019,0.916 0.053,1.196 0.072,0.277 0.218,0.511 0.442,0.691 0.231,0.184 0.517,0.287 0.857,0.312 0.302,0.019 0.564,-0.025 0.791,-0.14 0.228,-0.11 0.415,-0.274 0.565,-0.49 0.095,-0.136 0.18,-0.327 0.254,-0.569 0.05,0.202 0.107,0.352 0.169,0.448 0.04,0.066 0.127,0.159 0.265,0.29 0.133,0.124 0.239,0.211 0.317,0.255 l 1.505,0.91 0.134,-1.881 -1.586,-1.01 C -60.938,2.549 -61.071,2.437 -61.13,2.35 -61.203,2.219 -61.239,2.084 -61.227,1.926 l 0.013,-0.144 2.187,0.155 0.124,-1.678 -5.399,-0.374 z m 1.168,11.09 1.305,-0.28 -0.352,-1.667 3.988,-0.851 -0.353,-1.638 -3.984,0.853 -0.354,-1.67 -1.306,0.284 z m 2.094,5.196 4.909,-2.29 -0.71,-1.516 -4.903,2.29 z m 3.51,5.663 c 0.297,0.387 0.583,0.659 0.873,0.82 0.289,0.159 0.594,0.243 0.906,0.25 0.318,0.008 0.633,-0.047 0.95,-0.175 0.321,-0.128 0.624,-0.306 0.919,-0.529 0.462,-0.347 0.779,-0.67 0.954,-0.969 0.177,-0.293 0.28,-0.602 0.311,-0.92 0.031,-0.315 -0.006,-0.601 -0.109,-0.857 -0.14,-0.352 -0.299,-0.647 -0.477,-0.884 l -1.498,-1.982 -4.321,3.259 z m 5.705,4.946 c 0.118,0.687 0.542,1.282 1.258,1.778 0.735,0.523 1.445,0.723 2.119,0.604 0.678,-0.119 1.264,-0.536 1.763,-1.24 0.364,-0.524 0.573,-1.01 0.632,-1.465 0.059,-0.451 -0.009,-0.884 -0.215,-1.304 -0.196,-0.414 -0.542,-0.795 -1.031,-1.141 -0.502,-0.346 -0.975,-0.554 -1.411,-0.623 -0.437,-0.071 -0.885,-0.003 -1.327,0.199 -0.446,0.203 -0.847,0.558 -1.209,1.081 -0.508,0.723 -0.704,1.428 -0.579,2.111 m 17.831,4.026 c -0.138,0.101 -0.427,0.181 -0.882,0.243 -0.75,0.1 -1.28,0.272 -1.623,0.511 -0.332,0.25 -0.523,0.583 -0.56,1.004 -0.025,0.273 0.031,0.545 0.171,0.804 0.14,0.261 0.361,0.479 0.67,0.644 0.312,0.168 0.75,0.277 1.308,0.33 0.692,0.06 1.228,-0.027 1.608,-0.252 0.389,-0.223 0.635,-0.607 0.753,-1.159 l -1.558,-0.23 c -0.065,0.237 -0.167,0.408 -0.311,0.504 -0.143,0.1 -0.33,0.137 -0.563,0.12 -0.2,-0.02 -0.34,-0.073 -0.43,-0.163 -0.09,-0.094 -0.134,-0.194 -0.122,-0.312 0.009,-0.087 0.056,-0.159 0.144,-0.225 0.084,-0.061 0.274,-0.111 0.573,-0.149 0.741,-0.09 1.278,-0.202 1.607,-0.339 0.327,-0.131 0.576,-0.311 0.739,-0.539 0.164,-0.221 0.261,-0.483 0.286,-0.779 0.034,-0.345 -0.034,-0.67 -0.202,-0.978 -0.168,-0.311 -0.412,-0.554 -0.742,-0.735 -0.33,-0.181 -0.754,-0.29 -1.277,-0.34 -0.923,-0.078 -1.567,0.047 -1.95,0.371 -0.386,0.317 -0.623,0.748 -0.717,1.289 l 1.571,0.237 c 0.058,-0.258 0.146,-0.442 0.264,-0.566 0.194,-0.206 0.449,-0.3 0.764,-0.269 0.236,0.026 0.417,0.097 0.532,0.219 0.119,0.12 0.178,0.255 0.159,0.405 -0.009,0.136 -0.081,0.258 -0.212,0.354 m 5.125,0.857 c 0.168,0.87 0.539,1.499 1.118,1.885 0.573,0.389 1.293,0.505 2.156,0.33 0.885,-0.171 1.52,-0.542 1.906,-1.109 0.387,-0.566 0.492,-1.277 0.33,-2.131 -0.118,-0.623 -0.323,-1.108 -0.61,-1.471 -0.287,-0.351 -0.647,-0.609 -1.084,-0.747 -0.436,-0.142 -0.947,-0.156 -1.539,-0.043 -0.598,0.121 -1.078,0.308 -1.433,0.576 -0.355,0.265 -0.614,0.632 -0.773,1.094 -0.171,0.454 -0.19,0.996 -0.071,1.616 m 8.84,-2.284 c 0.421,0.788 0.954,1.284 1.599,1.488 0.648,0.202 1.352,0.096 2.124,-0.313 0.602,-0.32 1.007,-0.694 1.225,-1.121 0.217,-0.427 0.271,-0.935 0.171,-1.53 l -1.458,0.409 c 0.031,0.164 0.044,0.298 0.025,0.395 -0.018,0.156 -0.075,0.299 -0.162,0.417 -0.09,0.131 -0.206,0.231 -0.355,0.305 -0.334,0.179 -0.66,0.179 -0.985,0.007 -0.236,-0.128 -0.473,-0.405 -0.697,-0.832 -0.28,-0.532 -0.399,-0.941 -0.337,-1.221 0.057,-0.283 0.228,-0.499 0.515,-0.651 0.287,-0.155 0.541,-0.187 0.769,-0.106 0.228,0.081 0.458,0.255 0.682,0.524 l 1.087,-1.084 c -0.28,-0.312 -0.579,-0.542 -0.893,-0.689 -0.316,-0.14 -0.648,-0.202 -0.988,-0.177 -0.343,0.021 -0.729,0.146 -1.153,0.376 -0.517,0.274 -0.906,0.577 -1.156,0.901 -0.245,0.33 -0.395,0.747 -0.433,1.255 -0.031,0.501 0.106,1.054 0.42,1.647 m 9.156,-2.606 1.247,-1.125 -3.62,-4.016 -1.246,1.118 z m 5.051,-5.309 1.067,-1.476 -3.176,-4.827 -1.029,1.418 0.567,0.742 -1.122,1.539 -0.878,-0.315 -1.003,1.386 z m 4.606,-8.486 -3.85,-1.33 0.848,-2.461 -1.259,-0.44 -1.395,4.047 5.115,1.764 z M 0.399,8.051 -4.959,7.303 -5.193,8.96 0.162,9.711 Z m -32.342,30.887 c -9.2,0 -17.851,-3.586 -24.349,-10.084 -6.505,-6.504 -10.087,-15.153 -10.087,-24.352 0,-18.987 15.451,-34.434 34.436,-34.434 h 0.005 c 18.985,0 34.43,15.443 34.43,34.431 0,18.99 -15.451,34.439 -34.435,34.439"
             style="fill:#ffffff;fill-opacity:1;fill-rule:evenodd;stroke:none"
             id="path246" /></g></g></g></g></svg>
